<?xml version="1.0" standalone="no"?>
<!DOCTYPE svg PUBLIC "-//W3C//DTD SVG 20010904//EN"
 "http://www.w3.org/TR/2001/REC-SVG-20010904/DTD/svg10.dtd">
<svg version="1.0" xmlns="http://www.w3.org/2000/svg"
 width="500.000000pt" height="500.000000pt" viewBox="0 0 500.000000 500.000000"
 preserveAspectRatio="xMidYMid meet">
<metadata>
Created by potrace 1.14, written by Peter Selinger 2001-2017
</metadata>
<g transform="translate(0.000000,500.000000) scale(0.100000,-0.100000)"
fill="#000000" stroke="none">
<path d="M2781 4447 c-151 -303 -276 -554 -278 -557 -2 -2 -160 152 -350 343
-190 191 -346 347 -347 347 0 0 -1 -218 -1 -485 0 -267 -2 -485 -6 -485 -3 0
-84 16 -180 35 -96 20 -184 37 -196 40 -13 2 -58 11 -100 19 -43 9 -87 18 -98
20 -11 2 -148 30 -305 61 -157 31 -294 58 -305 61 -12 2 -61 12 -110 22 l-90
19 552 -555 c304 -305 553 -557 553 -561 0 -3 -152 -89 -338 -190 -185 -102
-526 -288 -757 -414 -231 -126 -421 -230 -422 -231 -1 0 371 -1 825 0 455 0
829 -1 832 -2 3 -2 -182 -379 -412 -838 l-418 -835 468 312 c257 171 469 315
472 318 3 3 10 8 15 10 6 2 57 36 113 74 57 39 111 75 119 80 8 6 121 80 250
167 l235 156 33 -31 c18 -18 55 -52 81 -76 27 -24 72 -65 99 -90 28 -25 95
-86 149 -136 55 -49 114 -103 131 -120 18 -16 52 -48 76 -69 24 -22 71 -64
104 -95 34 -31 101 -92 149 -136 49 -44 106 -96 126 -115 21 -19 73 -67 116
-106 44 -40 95 -87 115 -105 20 -19 71 -65 113 -104 43 -38 103 -94 134 -123
95 -88 101 -88 81 -2 -6 25 -12 54 -15 65 -7 36 -35 168 -61 285 -14 63 -27
126 -30 140 -4 23 -44 210 -223 1045 -37 176 -64 322 -60 325 5 3 315 5 689 5
375 0 681 2 681 5 -1 3 -35 30 -76 60 -42 30 -81 60 -87 65 -7 6 -93 71 -192
145 -99 74 -184 139 -190 143 -5 4 -127 96 -270 203 -143 107 -265 201 -272
207 -9 9 -1 24 35 63 26 28 72 79 102 114 30 34 66 75 80 90 14 15 45 51 70
80 25 29 50 58 56 64 6 6 50 56 99 111 48 55 95 107 104 116 9 9 39 43 66 75
28 32 90 104 140 159 87 98 101 114 145 165 12 14 38 43 58 65 88 95 134 155
119 155 -8 0 -37 -7 -63 -15 -46 -14 -228 -60 -284 -71 -14 -3 -38 -9 -55 -14
-60 -20 -1238 -311 -1241 -307 -3 3 -80 381 -98 482 -3 17 -8 39 -10 50 -13
59 -98 484 -101 505 -5 26 -8 45 -25 125 -12 56 -27 132 -38 187 -7 36 -18 16
-281 -515z"/>
</g>
</svg>
